<svg id="Layer_1" data-name="Layer 1" xmlns="http://www.w3.org/2000/svg" viewBox="0 0 250 170"><defs><style>.cls-1{fill:#fc9a05;}.cls-2{fill:#263241;}</style></defs><title>Product Engineering Services and Solutions logo</title><path class="cls-1" d="M129.32,142.89c-30.91.51-57.4-8.12-81.51-24.43a129.13,129.13,0,0,1-14.87-11.84,7.25,7.25,0,0,1-.85-.81c-.6-.8-1.39-1.56-.46-2.67s1.78-.79,2.71-.22A160.16,160.16,0,0,0,49,110.73a191.35,191.35,0,0,0,49.27,15.49,184,184,0,0,0,44.2,2.23,182.2,182.2,0,0,0,59.2-14.28,11.2,11.2,0,0,1,1.09-.43c1.75-.55,3.58-.75,4.57,1.1s-.22,3.12-1.63,4.16a115.67,115.67,0,0,1-32.46,16.56C158.48,140.5,143.36,143.4,129.32,142.89Z"/><path class="cls-2" d="M114.64,73.13q3.1-13.32,6.23-26.63c1.18-5,2.4-10,3.61-15a3,3,0,0,1,3.32-2.63c1.64.06,3.29,0,4.93,0,3.32,0,3.91.41,4.69,3.63,1.61,6.68,3.15,13.37,4.71,20.06s3.17,13.64,4.83,20.8c2-2.36,2.12-5.06,2.77-7.5,3-11.07,5.73-22.2,8.61-33.29.88-3.39,1.37-3.7,4.87-3.7h4c2.83,0,3.24.53,2.42,3.17q-2.62,8.51-5.29,17-5,16.08-10.08,32.15c-1.36,4.38-1.55,4.56-6.23,4.56-6.46,0-6.56,0-8.09-6.14-2.89-11.66-5.66-23.35-8.49-35a4.2,4.2,0,0,0-1.13-2c-.44,1.72-.9,3.44-1.31,5.17q-4.12,17.2-8.25,34.4c-.76,3.15-1.45,3.62-4.71,3.64h-3.76c-3.45,0-4.09-.43-5.06-3.61q-4.56-15-9.06-30C96.34,46.05,94.49,40,92.66,34a18.44,18.44,0,0,1-.61-2.26c-.44-2.5-.12-2.86,2.43-2.87,1.64,0,3.3.13,4.93,0,2.46-.24,3.62,1,4.17,3.17q3.09,12.14,6.17,24.27Q111.9,64.7,114,73.15Z"/><path class="cls-2" d="M85.81,58.83c0,3.92.07,7.14,0,10.34a16.72,16.72,0,0,0,2.37,9.41c1.26,2.07.81,3.51-1.23,4.63-.48.27-.93.59-1.38.9-3.84,2.61-4.84,2.38-7.47-1.52C77.23,81.32,77,79.1,75.6,79c-1-.11-2.13,1.79-3.27,2.73a23.37,23.37,0,0,1-21.57,4.73c-8.08-2-12.7-10.13-11.29-19.1,1.21-7.74,7.09-13.37,15.46-14.8a45.92,45.92,0,0,1,18.16,1c1.88.43,2.08-.12,2.06-1.74a51.84,51.84,0,0,0-.51-7.48c-.78-5.15-4.58-8-10.86-8.34a37.68,37.68,0,0,0-15.56,2.84l-2.62,1c-1.44.57-2.41.09-2.44-1.45-.09-6-.79-6.07,4.61-8.2A41.06,41.06,0,0,1,72.13,28c7.59,1.66,12.49,7.56,13.32,15.59C86,48.91,85.65,54.23,85.81,58.83Zm-21.91.88a24.06,24.06,0,0,0-6.5.66c-4.63,1.17-7.18,4.87-6.94,10,.21,4.58,2.68,7.53,6.86,8.18,10.46,1.63,18.26-5.34,17.83-15.88-.05-1.13-.33-1.67-1.51-1.89A58.11,58.11,0,0,0,63.9,59.71Z"/><path class="cls-2" d="M193.13,87.48c-6-.41-11.12-1.17-15.83-3.48-2.69-1.32-4.12-5.59-2.75-8.26.74-1.45,2-.85,3.06-.41a42.59,42.59,0,0,0,9.85,2.93A28.35,28.35,0,0,0,200,77.84C204.16,76.61,206.08,74,206,70c-.08-2.57-1.52-4.19-3.6-5.37-3.78-2.14-8.05-2.94-12.11-4.26-4.28-1.39-8.5-2.89-11.5-6.44-7.23-8.54-3.62-21,7.24-25,8.28-3.08,16.46-2.06,24.48,1,2.93,1.13,4.25,5,3,8-.67,1.52-1.78,1.18-2.95.65A32.13,32.13,0,0,0,195,35.85a16.75,16.75,0,0,0-4.57.88c-2.53.88-4.33,2.46-4.71,5.28A6.44,6.44,0,0,0,189,48.93c2.78,1.64,5.9,2.45,8.92,3.48,2.8,1,5.68,1.73,8.42,2.83,5.5,2.19,9.42,5.91,10.16,12.07a16,16,0,0,1-7.24,16C204.15,86.83,198.29,87.51,193.13,87.48Z"/><path class="cls-1" d="M203.15,107.13a116,116,0,0,0-11.91,1.17c-.84.15-1.9.29-2.3-.66s.5-1.74,1.23-2.28a27.83,27.83,0,0,1,10.49-4.51,48.17,48.17,0,0,1,19.32-.49c4.67.82,5.49,1.71,5.24,6.36A40.64,40.64,0,0,1,215,132.09a15.66,15.66,0,0,1-2.21,2.1c-.77.58-1.58,1.51-2.68.66s-.19-1.76.11-2.55c2.09-5.63,4.57-11.14,5.62-17.11a16.26,16.26,0,0,0,.29-2.08c.19-4-.83-5.2-4.79-5.67-1.4-.16-2.81-.24-4.21-.3S204.48,107.13,203.15,107.13Z"/></svg>