<svg id="Layer_1" data-name="Layer 1" xmlns="http://www.w3.org/2000/svg" viewBox="0 0 250 170"><defs><style>.cls-1{fill:#ea4335;}.cls-2{fill:#4285f4;}.cls-3{fill:#34a853;}.cls-4{fill:#fbbc05;}</style></defs><title>Product Engineering Services and Solutions logo</title><path class="cls-1" d="M149.31,52h5.28l15-15.05.74-6.39a67.66,67.66,0,0,0-110.06,33,8.18,8.18,0,0,1,5.28-.32l30.1-5s1.54-2.54,2.33-2.38A37.55,37.55,0,0,1,149.41,52Z"/><path class="cls-2" d="M191.08,63.53a67.76,67.76,0,0,0-20.44-32.95L149.52,51.7A37.54,37.54,0,0,1,163.3,81.48v3.75a18.8,18.8,0,0,1,0,37.6H125.7L122,126.64v22.54l3.75,3.75h37.6a48.9,48.9,0,0,0,27.78-89.4Z"/><path class="cls-3" d="M88.05,152.72h37.6v-30.1H88.05a18.77,18.77,0,0,1-7.77-1.69L75,122.57,59.85,137.62l-1.32,5.28A48.6,48.6,0,0,0,88.05,152.72Z"/><path class="cls-4" d="M88.05,55.08a48.9,48.9,0,0,0-29.52,87.66l21.81-21.81a18.8,18.8,0,1,1,24.87-24.87L127,74.25A48.87,48.87,0,0,0,88.05,55.08Z"/></svg>