<svg id="Layer_1" data-name="Layer 1" xmlns="http://www.w3.org/2000/svg" viewBox="0 0 250 170"><defs><style>.cls-1{fill:#006fb5;}.cls-2{fill:#016fb5;}.cls-3{fill:#016fb6;}.cls-4{fill:#006fb6;}.cls-5{fill:#dc1a32;}.cls-6{fill:#336ce4;}.cls-7{fill:#fcfcfe;}</style></defs><title>Product Engineering Services and Solutions logo</title><path class="cls-1" d="M63.26,117.5H98.43a16.35,16.35,0,0,0,6.32-1.3c.57-.24.75-.42.42-1.08-2.76-5.61-2.06-11.05.93-16.34.11-.19.24-.36.36-.54,1.29-1.94,1.33-2,3.25-.59,3.48,2.54,6.2,5.64,7,10,.12.68.47.64,1,.57a25.83,25.83,0,0,1,7.24.11,12.87,12.87,0,0,1,5.68,2.53c.42.31.41.53.23,1-2.72,6.71-7.83,9.74-14.92,9.68a1.65,1.65,0,0,0-1.82,1.17c-7.47,16.89-20.4,27.08-38.36,31A65.92,65.92,0,0,1,55.27,155c-9.71-.94-18.06-4.56-23.77-12.85a34.56,34.56,0,0,1-5.8-23.59c.09-.92.47-1.09,1.3-1.08Q45.14,117.52,63.26,117.5Z"/><path class="cls-2" d="M39.17,115.63c-1.55,0-3.11,0-4.66,0-.64,0-.9-.14-.89-.84q0-4.17,0-8.34c0-.69.23-.86.88-.85,3.11,0,6.21,0,9.32,0,.6,0,.81.15.81.78,0,2.82,0,5.64,0,8.46,0,.62-.19.81-.8.79C42.28,115.61,40.72,115.63,39.17,115.63Z"/><path class="cls-3" d="M77.76,115.63c-1.56,0-3.11,0-4.66,0-.61,0-.83-.17-.82-.79,0-2.82,0-5.64,0-8.46,0-.65.25-.78.83-.78q4.73,0,9.43,0c.57,0,.74.17.74.74,0,2.86,0,5.71,0,8.57,0,.58-.2.73-.75.72C80.94,115.61,79.35,115.63,77.76,115.63Z"/><path class="cls-1" d="M65,105.62c1.55,0,3.11,0,4.66,0,.61,0,.81.19.8.81,0,2.82,0,5.64,0,8.46,0,.56-.16.76-.73.76q-4.78,0-9.55,0c-.55,0-.75-.18-.75-.76,0-2.81,0-5.64,0-8.45,0-.61.18-.83.8-.82C61.79,105.64,63.38,105.62,65,105.62Z"/><path class="cls-1" d="M52,115.63c-1.56,0-3.11,0-4.66,0-.62,0-.8-.17-.8-.79,0-2.82,0-5.63,0-8.45,0-.62.19-.8.8-.79,3.1,0,6.21,0,9.32,0,.6,0,.81.17.8.79q0,4.23,0,8.45c0,.63-.2.81-.81.79C55.11,115.61,53.56,115.63,52,115.63Z"/><path class="cls-1" d="M90.66,115.63c-1.55,0-3.11,0-4.66,0-.61,0-.8-.17-.79-.79,0-2.82,0-5.63,0-8.45,0-.62.18-.8.79-.79,3.11,0,6.21,0,9.32,0,.59,0,.82.15.81.79,0,2.81,0,5.63,0,8.44,0,.64-.23.8-.81.79-1.56,0-3.11,0-4.66,0Z"/><path class="cls-1" d="M77.83,81.85c1.56,0,3.12,0,4.67,0,.63,0,.79.18.78.79q0,4.23,0,8.47c0,.65-.23.76-.81.75-3.11,0-6.22,0-9.34,0-.66,0-.86-.17-.85-.85,0-2.79,0-5.57,0-8.36,0-.72.27-.83.89-.81C74.72,81.88,76.28,81.85,77.83,81.85Z"/><path class="cls-1" d="M64.84,103.75c-1.52,0-3,0-4.56,0-.63,0-.89-.12-.88-.83,0-2.78,0-5.57,0-8.35,0-.7.24-.84.87-.83,3.11,0,6.23,0,9.34,0,.7,0,.83.24.82.88,0,2.74,0,5.49,0,8.24,0,.74-.25.92-.94.9C68,103.72,66.39,103.75,64.84,103.75Z"/><path class="cls-4" d="M77.83,93.76c1.56,0,3.11,0,4.67,0,.62,0,.79.18.78.79q0,4.23,0,8.46c0,.65-.23.77-.82.76-3.1,0-6.21,0-9.32,0-.67,0-.87-.19-.86-.86,0-2.75,0-5.49,0-8.24,0-.68.14-1,.89-.93C74.73,93.8,76.28,93.76,77.83,93.76Z"/><path class="cls-1" d="M52.07,93.76c1.56,0,3.11,0,4.66,0,.57,0,.75.16.74.73q0,4.29,0,8.56c0,.59-.22.72-.76.72q-4.71,0-9.43,0c-.58,0-.73-.19-.72-.74,0-2.85,0-5.71,0-8.56,0-.6.22-.72.76-.71C48.9,93.78,50.49,93.76,52.07,93.76Z"/><path class="cls-5" d="M180.34,85H209.7a6.72,6.72,0,0,1,6.86,6.86c0,5,0,10,0,15,0,.6-.14.76-.76.76q-7.47,0-14.95,0c-.58,0-.76-.15-.72-.73a14.58,14.58,0,0,0,0-2.09,3.59,3.59,0,0,0-3.39-3.4c-.28,0-.56,0-.85,0H164.66c-2.83,0-4.23,1.4-4.25,4.22,0,.64.28,1.46-.11,1.87s-1.22.12-1.86.13c-4.57,0-9.14,0-13.71,0-.56,0-.74-.11-.74-.71,0-5.09,0-10.18,0-15.26A6.7,6.7,0,0,1,150.74,85Z"/><path class="cls-5" d="M180.29,156H150.93a6.71,6.71,0,0,1-6.92-6.95c0-5,0-9.92,0-14.88,0-.6.08-.83.77-.82q7.44,0,14.87,0c.68,0,.84.2.79.82a14,14,0,0,0,0,1.94,3.6,3.6,0,0,0,3.49,3.47h32.31a3.66,3.66,0,0,0,3.91-3.93c0-.57,0-1.14,0-1.7s.14-.61.61-.6H216c.45,0,.56.14.56.56,0,5.22,0,10.44,0,15.65a6.68,6.68,0,0,1-6.65,6.43Z"/><path class="cls-5" d="M144,120.46c0-2.5,0-5,0-7.51,0-.55.14-.68.68-.68q7.5,0,15,0c.57,0,.73.13.73.72q0,7.52,0,15c0,.6-.17.72-.73.72q-7.51,0-15,0c-.54,0-.68-.14-.67-.68C144,125.52,144,123,144,120.46Z"/><path class="cls-5" d="M200.15,120.5c0-2.53,0-5.06,0-7.59,0-.51.15-.64.65-.64q7.59,0,15.18,0c.47,0,.6.12.6.6q0,7.63,0,15.26c0,.47-.12.6-.6.6q-7.59,0-15.18,0c-.59,0-.65-.22-.65-.72C200.16,125.51,200.15,123,200.15,120.5Z"/><path class="cls-6" d="M139.91,79.7h-30A8.83,8.83,0,0,1,106,76.61c-3.51-4.45-7.15-8.8-10.63-13.28-2.43-3.12-5.31-5.91-7.15-9.48v-2.1a2.14,2.14,0,0,0,.39-1.14q3-13,6-26A5,5,0,0,1,97.35,21L122.76,8.82a5.07,5.07,0,0,1,4.6,0l25.16,12a5.1,5.1,0,0,1,2.92,3.67q3.08,13.45,6.18,26.9a5.17,5.17,0,0,1-1.08,4.65q-8.23,10.2-16.41,20.43A7.83,7.83,0,0,1,139.91,79.7Zm-16.06-57c0,.52.09.82,0,1-.31.65-.17,1.62-1.25,1.75a19.51,19.51,0,0,0-11.17,5.18,1.8,1.8,0,0,1-2.68.07c-.71-.6-1.35-1.27-2-1.93a6.2,6.2,0,0,0-1.21-1.08,1.58,1.58,0,0,0-2.15.3,1.64,1.64,0,0,0,.3,2.16,8.39,8.39,0,0,0,1.25.86,11.82,11.82,0,0,1,2.45,1.65c.51.51,1.16,1.21.74,1.92a20.2,20.2,0,0,0-2.87,12.73c0,.37-.13.53-.41.82-1,1-2.31,1-3.55,1.08a9.09,9.09,0,0,0-2.07.31,1.54,1.54,0,0,0-1.11,1.86,1.51,1.51,0,0,0,1.75,1.12,5.25,5.25,0,0,0,1.39-.35c.92-.35,1.84-.7,2.79-1a1.92,1.92,0,0,1,2.47,1.26,19.83,19.83,0,0,0,7.37,9.18,1.89,1.89,0,0,1,.68,2.59c-.45.88-1,1.7-1.53,2.54a5.45,5.45,0,0,0-.76,1.43,1.56,1.56,0,0,0,.8,1.93,1.52,1.52,0,0,0,1.93-.6,4.42,4.42,0,0,0,.62-1.38c.31-.94.6-1.89,1-2.79a1.93,1.93,0,0,1,2.62-1.16,19.57,19.57,0,0,0,11.59,0,1.91,1.91,0,0,1,2.65,1.23c.36.82.61,1.67.9,2.51a4.38,4.38,0,0,0,.82,1.71,1.5,1.5,0,0,0,1.74.43,1.45,1.45,0,0,0,.9-1.54,3.25,3.25,0,0,0-.74-1.73,16.06,16.06,0,0,1-1.63-2.69,1.87,1.87,0,0,1,.41-2.26A19.7,19.7,0,0,0,143.74,52a1,1,0,0,1,.74-.68c1.48-.51,2.67.28,3.94.69a7.23,7.23,0,0,0,1.83.52,1.53,1.53,0,0,0,.6-3,4.79,4.79,0,0,0-1.59-.27,12.7,12.7,0,0,1-2.94-.4,1.85,1.85,0,0,1-1.46-2,19.85,19.85,0,0,0-2.63-11.57,1.9,1.9,0,0,1,.51-2.71c.73-.56,1.54-1,2.31-1.52a11.22,11.22,0,0,0,1.33-.92,1.58,1.58,0,0,0,.26-2.16,1.6,1.6,0,0,0-2.16-.27,5.3,5.3,0,0,0-1.26,1.15,12.1,12.1,0,0,1-2,1.92,2,2,0,0,1-2.7-.13,19.91,19.91,0,0,0-11.08-5.16c-.24,0-.57,0-.67-.24a4.85,4.85,0,0,1-.59-2.53,15.33,15.33,0,0,0,.36-3.51,1.53,1.53,0,1,0-3.05-.13,6,6,0,0,0,.06,1.34C123.64,21.29,123.77,22.14,123.85,22.73Z"/><path class="cls-7" d="M123.85,22.73c-.08-.59-.21-1.44-.3-2.29a6,6,0,0,1-.06-1.34,1.53,1.53,0,1,1,3.05.13,15.33,15.33,0,0,1-.36,3.51,4.85,4.85,0,0,0,.59,2.53c.1.29.43.21.67.24a19.91,19.91,0,0,1,11.08,5.16,2,2,0,0,0,2.7.13,12.1,12.1,0,0,0,2-1.92,5.3,5.3,0,0,1,1.26-1.15,1.6,1.6,0,0,1,2.16.27,1.58,1.58,0,0,1-.26,2.16,11.22,11.22,0,0,1-1.33.92c-.77.51-1.58,1-2.31,1.52a1.9,1.9,0,0,0-.51,2.71,19.85,19.85,0,0,1,2.63,11.57,1.85,1.85,0,0,0,1.46,2,12.7,12.7,0,0,0,2.94.4,4.79,4.79,0,0,1,1.59.27,1.53,1.53,0,0,1-.6,3,7.23,7.23,0,0,1-1.83-.52c-1.27-.41-2.46-1.2-3.94-.69a1,1,0,0,0-.74.68A19.7,19.7,0,0,1,135.88,62a1.87,1.87,0,0,0-.41,2.26,16.06,16.06,0,0,0,1.63,2.69,3.25,3.25,0,0,1,.74,1.73,1.45,1.45,0,0,1-.9,1.54,1.5,1.5,0,0,1-1.74-.43,4.38,4.38,0,0,1-.82-1.71c-.29-.84-.54-1.69-.9-2.51a1.91,1.91,0,0,0-2.65-1.23,19.57,19.57,0,0,1-11.59,0,1.93,1.93,0,0,0-2.62,1.16c-.39.9-.68,1.85-1,2.79a4.42,4.42,0,0,1-.62,1.38,1.52,1.52,0,0,1-1.93.6,1.56,1.56,0,0,1-.8-1.93,5.45,5.45,0,0,1,.76-1.43c.53-.84,1.08-1.66,1.53-2.54a1.89,1.89,0,0,0-.68-2.59,19.83,19.83,0,0,1-7.37-9.18,1.92,1.92,0,0,0-2.47-1.26c-1,.26-1.87.61-2.79,1a5.25,5.25,0,0,1-1.39.35,1.51,1.51,0,0,1-1.75-1.12,1.54,1.54,0,0,1,1.11-1.86,9.09,9.09,0,0,1,2.07-.31c1.24-.13,2.54-.05,3.55-1.08.28-.29.45-.45.41-.82a20.2,20.2,0,0,1,2.87-12.73c.42-.71-.23-1.41-.74-1.92a11.82,11.82,0,0,0-2.45-1.65,8.39,8.39,0,0,1-1.25-.86,1.64,1.64,0,0,1-.3-2.16,1.58,1.58,0,0,1,2.15-.3,6.2,6.2,0,0,1,1.21,1.08c.64.66,1.28,1.33,2,1.93a1.8,1.8,0,0,0,2.68-.07,19.51,19.51,0,0,1,11.17-5.18c1.08-.13.94-1.1,1.25-1.75C123.94,23.55,123.85,23.25,123.85,22.73Zm16.07,27.9c-2.68-.45-5.28-.93-7.89-1.32a1.29,1.29,0,0,0-1.47,1.81c.9,2.34,1.9,4.65,2.85,7,.15.37.33.39.64.17A15.67,15.67,0,0,0,139.92,50.63ZM123,30.64c.07-1.1.07-1.12-.49-1a16.06,16.06,0,0,0-8,3.78c-.44.38-.51.6,0,1,1.87,1.28,3.7,2.61,5.55,3.92.54.38,1.09.72,1.76.38a1.67,1.67,0,0,0,.81-1.62Q122.84,33.85,123,30.64ZM138.49,37c-2,1.8-4,3.54-5.92,5.35a1.3,1.3,0,0,0,.62,2.3c2.34.72,4.71,1.36,7.06,2,.43.12.57,0,.59-.42A16.11,16.11,0,0,0,138.49,37Zm-29.32,7.83a8.72,8.72,0,0,1,.07,1.14c-.06.76.17.9.92.66,2.12-.67,4.28-1.23,6.41-1.86,1.56-.47,1.83-1.58.64-2.67-1.69-1.54-3.43-3-5.11-4.6-.5-.46-.72-.36-1,.19A16.64,16.64,0,0,0,109.17,44.81Zm7.31,13.72c1-2.5,2-4.9,3-7.33a1.3,1.3,0,0,0-1.31-1.88c-2.53.36-5,.84-7.54,1.26-.35.06-.42.18-.29.5A15.71,15.71,0,0,0,116.48,58.53ZM125,61.11a18.66,18.66,0,0,0,4.51-.69c.38-.11.57-.21.33-.64-1.22-2.16-2.38-4.36-3.64-6.5a1.29,1.29,0,0,0-2.37.07c-1.2,2.1-2.34,4.23-3.53,6.34-.28.49-.12.62.36.76A19.89,19.89,0,0,0,125,61.11Zm3.76-22.35a1.52,1.52,0,0,0,1-.36c1.92-1.36,3.84-2.73,5.77-4.08.42-.29.49-.49.07-.85a16,16,0,0,0-8-3.84c-.42-.08-.61,0-.59.45.15,2.51.28,5,.47,7.53A1.19,1.19,0,0,0,128.75,38.76Zm-1.08,6.14c0-.71-1.34-2.19-2-2.13s-1.46-.34-2,.25-1.23,1-1.26,1.83C122.3,46.33,123.79,48,125,48A3.14,3.14,0,0,0,127.67,44.9Z"/><path class="cls-6" d="M139.92,50.63a15.67,15.67,0,0,1-5.87,7.64c-.31.22-.49.2-.64-.17-.95-2.33-1.95-4.64-2.85-7A1.29,1.29,0,0,1,132,49.31C134.64,49.7,137.24,50.18,139.92,50.63Z"/><path class="cls-6" d="M123,30.64q-.17,3.21-.35,6.4a1.67,1.67,0,0,1-.81,1.62c-.67.34-1.22,0-1.76-.38-1.85-1.31-3.68-2.64-5.55-3.92-.55-.37-.48-.59,0-1a16.06,16.06,0,0,1,8-3.78C123.08,29.52,123.08,29.54,123,30.64Z"/><path class="cls-6" d="M138.49,37a16.11,16.11,0,0,1,2.35,9.28c0,.43-.16.54-.59.42-2.35-.69-4.72-1.33-7.06-2a1.3,1.3,0,0,1-.62-2.3C134.49,40.52,136.48,38.78,138.49,37Z"/><path class="cls-6" d="M109.17,44.81a16.64,16.64,0,0,1,1.92-7.14c.29-.55.51-.65,1-.19,1.68,1.55,3.42,3.06,5.11,4.6,1.19,1.09.92,2.2-.64,2.67-2.13.63-4.29,1.19-6.41,1.86-.75.24-1,.1-.92-.66A8.72,8.72,0,0,0,109.17,44.81Z"/><path class="cls-6" d="M116.48,58.53a15.71,15.71,0,0,1-6.14-7.45c-.13-.32-.06-.44.29-.5,2.51-.42,5-.9,7.54-1.26a1.3,1.3,0,0,1,1.31,1.88C118.53,53.63,117.51,56,116.48,58.53Z"/><path class="cls-6" d="M125,61.11a19.89,19.89,0,0,1-4.34-.66c-.48-.14-.64-.27-.36-.76,1.19-2.11,2.33-4.24,3.53-6.34a1.29,1.29,0,0,1,2.37-.07c1.26,2.14,2.42,4.34,3.64,6.5.24.43,0,.53-.33.64A18.66,18.66,0,0,1,125,61.11Z"/><path class="cls-6" d="M128.75,38.76a1.19,1.19,0,0,1-1.28-1.15c-.19-2.51-.32-5-.47-7.53,0-.45.17-.53.59-.45a16,16,0,0,1,8,3.84c.42.36.35.56-.07.85-1.93,1.35-3.85,2.72-5.77,4.08A1.52,1.52,0,0,1,128.75,38.76Z"/><path class="cls-6" d="M127.67,44.9A3.14,3.14,0,0,1,125,48c-1.25,0-2.74-1.63-2.67-3.11,0-.8.77-1.28,1.26-1.83s1.32-.21,2-.25S127.69,44.19,127.67,44.9Z"/></svg>